Body of Proof S1D1 HDTV DD5.1 NL Subs

Verenigde Staten ~ 60 minuten per aflevering ~ gecreëerd door Chris Murphey ~ met Windell Middlebrooks, Dana Delany en Jeri Ryan (7 of 9).

Dokter Megan Hunt was in een eerder leven een gerespecteerd neurochirurg. Mede door haar drukke professionele activiteiten eindigde haar huwelijk in een scheiding en verloor ze de voogdij over haar dochter aan haar ex-man. Na haar echtscheiding had ze een auto-ongeluk met als gevolg dat ze een verminderd gevoel in haar handen kreeg. Toen een van haar patiënten op de operatietafel stierf stopte ze met de chirurgie. Ze wordt schouwarts bij de politie van Philadelphia en met haar gedrevenheid lost ze moordzaken op, maar diezelfde gedrevenheid wekt ook irritaties op bij haar collega's.

Bestandsformaat: Video_TS map
Bestandsgrootte: 4,18 GB
Taal: Engels in DD5.1
Ondertitelingen: Nederlands ~ Nederlands custom door wivr (in te stellen)
Categorie : Serie
Beelformaat: 16:9 NTSC
Bron : HDTV
Menu: Ja, custom door Darkling
Extra's: Nee
Genre : Misdaad ~ Drama
Weblink :  http://www.imdb.com/title/tt1587669/
Extra info: Deze dvd bevat 4 afleveringen, inclusief de pilot. De komende afleveringen worden als .mkv gepost.

~~~~~~~~~~~~~~~~~~~~~~
USA  ~ 60 minutes per episode ~ created by Chris Murphy ~ with Windell Middlebrooks, Dana Delany and Jeri Ryan

The series stars Delany as Dr. Megan Hunt, a medical examiner. The show will focus on Hunt's efforts to balance the demands of her professional life with her personal life.[2] Hunt was a top-flight neurosurgeon until she had a life-changing automobile accident. Her boss is the city's Chief Medical Examiner, played by Jeri Ryan.

File Format: .MKV
File size: 1.40 GB
Language: English in DD5.1
Subtitles: Dutch ~ Dutch custom by wivr (selectable)
Category : Series
Format : 16:9 NTSC
Source : HDTV
Menu: Yes, custom by Darkling
Extras: No
Genre : Drama ~ Crime
Weblink :  http://www.imdb.com/title/tt1587669/
Extra info: This dvd contains 4 episodes, including the pilot. Next episodes will be posted in .mkv quality.

Video and audio information:
~~~~~~~~~~~~~~~~~~~~~~
Video
ID                               : 224 (0xE0)
Format                           : MPEG Video
Format version                   : Version 2
Format profile                   : Main@Main
Format settings, BVOP            : Yes
Format settings, Matrix          : Default
Duration                         : 43mn 25s
Bit rate mode                    : Variable
Bit rate                         : 2 759 Kbps
Nominal bit rate                 : 9 424 Kbps
Width                            : 720 pixels
Height                           : 480 pixels
Display aspect ratio             : 16:9
Frame rate                       : 23.976 fps
Standard                         : NTSC
Color space                      : YUV
Chroma subsampling               : 4:2:0
Bit depth                        : 8 bits
Scan type                        : Progressive
Scan order                       : 2:3 Pulldown
Compression mode                 : Lossy
Bits/(Pixel*Frame)               : 0.333
Stream size                      : 857 MiB (86%)

Audio
ID                               : 189 (0xBD)-128 (0x80)
Format                           : AC-3
Format/Info                      : Audio Coding 3
Mode extension                   : CM (complete main)
Muxing mode                      : DVD-Video
Duration                         : 43mn 25s
Bit rate mode                    : Constant
Bit rate                         : 384 Kbps
Channel(s)                       : 6 channels
Channel positions                : Front: L C R, Side: L R, LFE
Sampling rate                    : 48.0 KHz
Bit depth                        : 16 bits
Compression mode                 : Lossy
Stream size                      : 119 MiB (12%)

~~~~~~~~~~~~~~~
Hornigold TBS
~~~~~~~~~~~~~~~